<?xml version="1.0" encoding="UTF-8" standalone="no" ?>
<!DOCTYPE svg PUBLIC "-//W3C//DTD SVG 1.1//EN" "http://www.w3.org/Graphics/SVG/1.1/DTD/svg11.dtd">
<svg xmlns="http://www.w3.org/2000/svg" xmlns:xlink="http://www.w3.org/1999/xlink" version="1.1" width="1080" height="1080" viewBox="0 0 1080 1080" xml:space="preserve">
<desc>Created with Fabric.js 5.2.4</desc>
<defs>
</defs>
<rect x="0" y="0" width="100%" height="100%" fill="transparent"></rect>
<g transform="matrix(1 0 0 1 540 540)" id="eec5ca99-7a19-4b19-b6c9-cf85038c157c"  >
<rect style="stroke: none; stroke-width: 1; stroke-dasharray: none; stroke-linecap: butt; stroke-dashoffset: 0; stroke-linejoin: miter; stroke-miterlimit: 4; fill: rgb(255,255,255); fill-rule: nonzero; opacity: 1; visibility: hidden;" vector-effect="non-scaling-stroke"  x="-540" y="-540" rx="0" ry="0" width="1080" height="1080" />
</g>
<g transform="matrix(1 0 0 1 540 540)" id="326bc46b-f1d2-40a9-86c9-26d74fafb6fb"  >
</g>
<g transform="matrix(1 0 0 1 540 540)"  >
<g style="" vector-effect="non-scaling-stroke"   >
		<g transform="matrix(1 0 0 1 -12.94 0)"  >
<path style="stroke: none; stroke-width: 1; stroke-dasharray: none; stroke-linecap: butt; stroke-dashoffset: 0; stroke-linejoin: miter; stroke-miterlimit: 4; fill: rgb(255,255,255); fill-rule: nonzero; opacity: 1;" vector-effect="non-scaling-stroke"  transform=" translate(-243.07, -247.92)" d="M 101.9 478.3 C 95.60000000000001 476.2 88.2 470.5 84.2 464.6 C 77.7 454.8 77.9 460.1 78.2 345.40000000000003 L 78.5 241.50000000000003 L 81.8 234.80000000000004 C 88 222.20000000000005 97.7 216.00000000000003 113 215.10000000000005 L 122.5 214.50000000000006 L 123.1 165.00000000000006 C 123.69999999999999 110.40000000000006 123.6 111.30000000000005 130.9 92.40000000000006 C 145.9 53.600000000000065 181.10000000000002 24.70000000000006 222.4 17.500000000000057 C 233.6 15.600000000000056 253.20000000000002 15.600000000000056 264.1 17.500000000000057 C 299.8 23.700000000000056 332.6 48.400000000000055 350 82.10000000000005 C 360.3 102.20000000000005 363 115.50000000000006 363 147.30000000000007 C 363 167.70000000000007 362.9 169.10000000000008 361 171.00000000000006 C 359.1 172.90000000000006 357.7 173.00000000000006 340.7 173.00000000000006 C 326.5 173.00000000000006 321.9 172.70000000000005 320.4 171.60000000000005 C 318.59999999999997 170.30000000000004 318.5 168.40000000000006 317.9 145.80000000000004 C 317.4 124.40000000000003 317.09999999999997 120.70000000000005 315.09999999999997 114.50000000000004 C 306.99999999999994 89.20000000000005 286.2 69.30000000000004 261.4 63.00000000000004 C 251.99999999999997 60.600000000000044 237.2 60.40000000000004 227.09999999999997 62.50000000000004 C 201.29999999999995 67.90000000000005 180.39999999999998 86.70000000000005 171.29999999999995 112.50000000000004 L 168.49999999999994 120.50000000000004 L 168.19999999999993 167.70000000000005 L 167.89999999999992 215.00000000000006 L 274.69999999999993 215.20000000000005 L 381.49999999999994 215.50000000000006 L 386.99999999999994 218.10000000000005 C 397.79999999999995 223.20000000000005 404.99999999999994 232.90000000000006 406.99999999999994 245.10000000000005 C 408.3999999999999 253.80000000000004 408.3999999999999 441.20000000000005 406.99999999999994 449.9000000000001 C 404.99999999999994 462.1000000000001 397.79999999999995 471.80000000000007 386.99999999999994 476.9000000000001 L 381.49999999999994 479.5000000000001 L 243.99999999999994 479.7000000000001 C 122.19999999999995 479.9000000000001 105.99999999999994 479.7000000000001 101.89999999999995 478.3000000000001 z M 380.79999999999995 465.40000000000003 C 385.49999999999994 463.50000000000006 389.59999999999997 459.6 392.29999999999995 454.50000000000006 L 394.49999999999994 450.50000000000006 L 394.49999999999994 347.50000000000006 L 394.49999999999994 244.50000000000006 L 392.29999999999995 240.40000000000006 C 389.49999999999994 235.10000000000005 384.09999999999997 230.40000000000006 379.29999999999995 229.00000000000006 C 376.59999999999997 228.20000000000005 335.79999999999995 228.00000000000006 240.29999999999995 228.20000000000005 L 105.19999999999996 228.50000000000006 L 100.79999999999995 231.50000000000006 C 98.49999999999996 233.20000000000005 95.39999999999995 236.60000000000005 93.99999999999996 239.00000000000006 L 91.49999999999996 243.50000000000006 L 91.19999999999996 345.30000000000007 C 91.09999999999997 412.00000000000006 91.29999999999995 448.50000000000006 91.99999999999996 450.9000000000001 C 93.49999999999996 456.5000000000001 98.19999999999996 462.4000000000001 103.09999999999995 464.80000000000007 L 107.49999999999996 467.00000000000006 L 242.29999999999995 467.00000000000006 C 361.9 467.00000000000006 377.49999999999994 466.80000000000007 380.79999999999995 465.40000000000003 z M 154.99999999999994 167.00000000000006 C 155.59999999999994 115.30000000000005 155.59999999999994 116.00000000000006 161.89999999999995 101.00000000000006 C 170.29999999999995 80.90000000000006 189.79999999999995 62.20000000000006 210.99999999999994 53.70000000000006 C 226.09999999999994 47.70000000000006 247.09999999999994 46.20000000000006 262.99999999999994 50.00000000000006 C 296.69999999999993 58.10000000000006 323.8999999999999 87.10000000000005 329.9 121.40000000000006 C 330.5 124.70000000000006 331 134.70000000000007 331 143.70000000000007 L 331 160.00000000000009 L 340.6 160.00000000000009 L 350.20000000000005 160.00000000000009 L 349.70000000000005 139.3000000000001 C 349.30000000000007 122.8000000000001 348.80000000000007 116.8000000000001 347.20000000000005 110.5000000000001 C 336.80000000000007 69.8000000000001 303.20000000000005 38.100000000000094 262.30000000000007 30.400000000000105 C 249.40000000000006 28.000000000000107 227.90000000000006 28.900000000000105 215.10000000000008 32.400000000000105 C 175.00000000000009 43.50000000000011 145.20000000000007 75.8000000000001 137.50000000000009 116.30000000000011 C 136.3000000000001 122.60000000000011 136.00000000000009 133.30000000000013 136.00000000000009 169.6000000000001 L 136.00000000000009 215.1000000000001 L 145.3000000000001 214.8000000000001 L 154.50000000000009 214.50000000000009 L 155.00000000000009 167.00000000000009 z" stroke-linecap="round" />
</g>
		<g transform="matrix(1 0 0 1 -13.24 99.56)"  >
<path style="stroke: none; stroke-width: 1; stroke-dasharray: none; stroke-linecap: butt; stroke-dashoffset: 0; stroke-linejoin: miter; stroke-miterlimit: 4; fill: rgb(255,255,255); fill-rule: nonzero; opacity: 1;" vector-effect="non-scaling-stroke"  transform=" translate(-242.76, -347.48)" d="M 235 422.5 C 230.8 420.6 226.4 416.6 224.2 412.5 C 222.79999999999998 410 222.39999999999998 405.4 222.2 383.4 L 221.89999999999998 357.4 L 218.39999999999998 355.5 C 213.89999999999998 353.1 204.79999999999998 343.4 202.09999999999997 338.2 C 192.89999999999998 320.2 196.49999999999997 298.4 210.99999999999997 284 C 225.59999999999997 269.6 248.29999999999995 266.8 266.2 277.3 C 272.59999999999997 281 280.7 290.1 284 297.2 C 293.6 317.8 287.4 341.2 268.9 354.2 L 263 358.4 L 263 383.5 C 263 407.9 262.9 408.8 260.7 413.1 C 255.89999999999998 422.1 244 426.5 235 422.5 z M 248 409 C 249.9 407.1 250 405.7 250 379.9 C 250 363.2 250.4 352.09999999999997 251 350.9 C 251.6 349.9 254.3 347.9 257.1 346.5 C 266.90000000000003 341.5 273.20000000000005 333 274.8 322.6 C 277.2 307.40000000000003 269.7 292.90000000000003 256.5 286.8 C 252.5 285 249.8 284.5 242.5 284.5 C 234.6 284.5 232.8 284.9 228.3 287.3 C 221.70000000000002 290.7 216.70000000000002 295.7 213.3 302.3 C 210.9 306.8 210.5 308.6 210.5 316.5 C 210.5 324.3 210.9 326.2 213.3 331.2 C 216.5 337.7 221.8 342.8 229 346.5 C 231.7 347.9 234.1 349.1 234.2 349.3 C 234.29999999999998 349.40000000000003 234.6 362.5 234.89999999999998 378.3 C 235.49999999999997 407.1 235.49999999999997 407.2 237.89999999999998 409.1 C 240.89999999999998 411.6 245.49999999999997 411.5 247.99999999999997 409 z" stroke-linecap="round" />
</g>
		<g transform="matrix(1 0 0 1 147.06 -46.98)"  >
<path style="stroke: none; stroke-width: 1; stroke-dasharray: none; stroke-linecap: butt; stroke-dashoffset: 0; stroke-linejoin: miter; stroke-miterlimit: 4; fill: rgb(255,255,255); fill-rule: nonzero; opacity: 1;" vector-effect="non-scaling-stroke"  transform=" translate(-403.06, -200.94)" d="M 398.8 205.2 C 382.2 188.7 381.1 186.89999999999998 385 183 C 389.3 178.7 391.4 179.9 407.7 196.3 C 418.4 207 423 212.3 423 213.8 C 423 216.5 418.8 221 416.3 221 C 415.40000000000003 221 407.5 213.9 398.8 205.2 z" stroke-linecap="round" />
</g>
		<g transform="matrix(1 0 0 1 152.51 -84.42)"  >
<path style="stroke: none; stroke-width: 1; stroke-dasharray: none; stroke-linecap: butt; stroke-dashoffset: 0; stroke-linejoin: miter; stroke-miterlimit: 4; fill: rgb(255,255,255); fill-rule: nonzero; opacity: 1;" vector-effect="non-scaling-stroke"  transform=" translate(-408.51, -163.5)" d="M 385.5 167.5 C 382.5 164.6 382.3 161.7 385 159 C 386.9 157.1 388.3 157 408.5 157 C 428.7 157 430.1 157.1 432 159 C 434.8 161.8 434.5 165.4 431.4 167.9 C 428.9 169.9 427.5 170 408.29999999999995 170 C 387.99999999999994 170 387.9 170 385.49999999999994 167.5 z" stroke-linecap="round" />
</g>
		<g transform="matrix(1 0 0 1 146.81 -121.86)"  >
<path style="stroke: none; stroke-width: 1; stroke-dasharray: none; stroke-linecap: butt; stroke-dashoffset: 0; stroke-linejoin: miter; stroke-miterlimit: 4; fill: rgb(255,255,255); fill-rule: nonzero; opacity: 1;" vector-effect="non-scaling-stroke"  transform=" translate(-402.81, -126.06)" d="M 385.5 143.5 C 384.1 142.2 383 140.1 383 138.9 C 383 136.20000000000002 411.3 107.2 414.7 106.4 C 419.09999999999997 105.30000000000001 423.7 110 422.4 114.30000000000001 C 421.59999999999997 117.00000000000001 396.5 142.60000000000002 392.79999999999995 144.60000000000002 C 389.09999999999997 146.50000000000003 388.29999999999995 146.40000000000003 385.49999999999994 143.50000000000003 z" stroke-linecap="round" />
</g>
</g>
</g>
</svg>