<?xml version="1.0" encoding="utf-8"?>
<!DOCTYPE svg PUBLIC "-//W3C//DTD SVG 1.0//EN" "http://www.w3.org/TR/2001/REC-SVG-20010904/DTD/svg10.dtd">
<svg version="1.0" xmlns="http://www.w3.org/2000/svg" width="512px" height="512px" viewBox="0 0 512 512" preserveAspectRatio="xMidYMid meet">
 <g fill="#000000">
  <path d="M101.9 478.3 c-6.3 -2.1 -13.7 -7.8 -17.7 -13.7 -6.5 -9.8 -6.3 -4.5 -6 -119.2 l0.3 -103.9 3.3 -6.7 c6.2 -12.6 15.9 -18.8 31.2 -19.7 l9.5 -0.6 0.6 -49.5 c0.6 -54.6 0.5 -53.7 7.8 -72.6 15 -38.8 50.2 -67.7 91.5 -74.9 11.2 -1.9 30.8 -1.9 41.7 0 35.7 6.2 68.5 30.9 85.9 64.6 10.3 20.1 13 33.4 13 65.2 0 20.4 -0.1 21.8 -2 23.7 -1.9 1.9 -3.3 2 -20.3 2 -14.2 0 -18.8 -0.3 -20.3 -1.4 -1.8 -1.3 -1.9 -3.2 -2.5 -25.8 -0.5 -21.4 -0.8 -25.1 -2.8 -31.3 -8.1 -25.3 -28.9 -45.2 -53.7 -51.5 -9.4 -2.4 -24.2 -2.6 -34.3 -0.5 -25.8 5.4 -46.7 24.2 -55.8 50 l-2.8 8 -0.3 47.2 -0.3 47.3 106.8 0.2 106.8 0.3 5.5 2.6 c10.8 5.1 18 14.8 20 27 1.4 8.7 1.4 196.1 0 204.8 -2 12.2 -9.2 21.9 -20 27 l-5.5 2.6 -137.5 0.2 c-121.8 0.2 -138 0 -142.1 -1.4z m278.9 -12.9 c4.7 -1.9 8.8 -5.8 11.5 -10.9 l2.2 -4 0 -103 0 -103 -2.2 -4.1 c-2.8 -5.3 -8.2 -10 -13 -11.4 -2.7 -0.8 -43.5 -1 -139 -0.8 l-135.1 0.3 -4.4 3 c-2.3 1.7 -5.4 5.1 -6.8 7.5 l-2.5 4.5 -0.3 101.8 c-0.1 66.7 0.1 103.2 0.8 105.6 1.5 5.6 6.2 11.5 11.1 13.9 l4.4 2.2 134.8 0 c119.6 0 135.2 -0.2 138.5 -1.6z m-225.8 -298.4 c0.6 -51.7 0.6 -51 6.9 -66 8.4 -20.1 27.9 -38.8 49.1 -47.3 15.1 -6 36.1 -7.5 52 -3.7 33.7 8.1 60.9 37.1 66.9 71.4 0.6 3.3 1.1 13.3 1.1 22.3 l0 16.3 9.6 0 9.6 0 -0.5 -20.7 c-0.4 -16.5 -0.9 -22.5 -2.5 -28.8 -10.4 -40.7 -44 -72.4 -84.9 -80.1 -12.9 -2.4 -34.4 -1.5 -47.2 2 -40.1 11.1 -69.9 43.4 -77.6 83.9 -1.2 6.3 -1.5 17 -1.5 53.3 l0 45.5 9.3 -0.3 9.2 -0.3 0.5 -47.5z"/>
  <path d="M235 422.5 c-4.2 -1.9 -8.6 -5.9 -10.8 -10 -1.4 -2.5 -1.8 -7.1 -2 -29.1 l-0.3 -26 -3.5 -1.9 c-4.5 -2.4 -13.6 -12.1 -16.3 -17.3 -9.2 -18 -5.6 -39.8 8.9 -54.2 14.6 -14.4 37.3 -17.2 55.2 -6.7 6.4 3.7 14.5 12.8 17.8 19.9 9.6 20.6 3.4 44 -15.1 57 l-5.9 4.2 0 25.1 c0 24.4 -0.1 25.3 -2.3 29.6 -4.8 9 -16.7 13.4 -25.7 9.4z m13 -13.5 c1.9 -1.9 2 -3.3 2 -29.1 0 -16.7 0.4 -27.8 1 -29 0.6 -1 3.3 -3 6.1 -4.4 9.8 -5 16.1 -13.5 17.7 -23.9 2.4 -15.2 -5.1 -29.7 -18.3 -35.8 -4 -1.8 -6.7 -2.3 -14 -2.3 -7.9 0 -9.7 0.4 -14.2 2.8 -6.6 3.4 -11.6 8.4 -15 15 -2.4 4.5 -2.8 6.3 -2.8 14.2 0 7.8 0.4 9.7 2.8 14.7 3.2 6.5 8.5 11.6 15.7 15.3 2.7 1.4 5.1 2.6 5.2 2.8 0.1 0.1 0.4 13.2 0.7 29 0.6 28.8 0.6 28.9 3 30.8 3 2.5 7.6 2.4 10.1 -0.1z"/>
  <path d="M398.8 205.2 c-16.6 -16.5 -17.7 -18.3 -13.8 -22.2 4.3 -4.3 6.4 -3.1 22.7 13.3 10.7 10.7 15.3 16 15.3 17.5 0 2.7 -4.2 7.2 -6.7 7.2 -0.9 0 -8.8 -7.1 -17.5 -15.8z"/>
  <path d="M385.5 167.5 c-3 -2.9 -3.2 -5.8 -0.5 -8.5 1.9 -1.9 3.3 -2 23.5 -2 20.2 0 21.6 0.1 23.5 2 2.8 2.8 2.5 6.4 -0.6 8.9 -2.5 2 -3.9 2.1 -23.1 2.1 -20.3 0 -20.4 0 -22.8 -2.5z"/>
  <path d="M385.5 143.5 c-1.4 -1.3 -2.5 -3.4 -2.5 -4.6 0 -2.7 28.3 -31.7 31.7 -32.5 4.4 -1.1 9 3.6 7.7 7.9 -0.8 2.7 -25.9 28.3 -29.6 30.3 -3.7 1.9 -4.5 1.8 -7.3 -1.1z"/>
 </g>
</svg>